:SAMPLES-PER-SECOND 30
:FULLY-SPECIFIED
:DEGREES
387
root  61.4417 39.2869 16.4485 -170.772 -14.6057 -179.766
RightUpLeg  -25.9016 -38.6657 0.188504
RightLeg  18.6371 -18.79 0.52058
RightFoot  2.7327 0.694376 -5.47302
RightToes  0.000482159 0.542163 -0.142577
Spine  52.4674 -4.57983 8.49907
Spine1  6.65232 -1.58003 1.47528
HEad  -40.7491 -0.481129 -9.28852
LeftShoulder1  11.5696 -21.2503 -40.3948
LeftArm  -2.44291 -34.9115 -47.6471
LeftForeArm  17.971 -46.6645 -10.5892
LeftHand  -0.25398 0.0180481 5.50724
RightShoulder  4.97893 10.5123 29.5507
RightArm  -28.7815 23.1515 26.2685
RightForeArm  -10.6259 42.0859 10.7669
RightHand  0.357162 -0.230605 8.14552
LeftUpLeg  -48.9127 50.464 -20.9094
LeftLeg  24.2285 -21.1902 -9.78097
LeftFoot  11.6008 3.92229 -19.3689
LeftToes  1.06248e-005 4.65855e-005 -8.18498e-006
388
root  60.907 39.438 16.4248 -172.378 -17.1189 -179.252
RightUpLeg  -19.5058 -31.5942 -5.57843
RightLeg  15.9602 -28.4457 1.4044
RightFoot  4.2279 0.551088 -3.82102
RightToes  0.000482159 0.542163 -0.142577
Spine  50.7087 -4.85937 8.14145
Spine1  6.51286 -1.96915 1.28479
HEad  -39.6038 2.04887 -11.7563
LeftShoulder1  11.3538 -20.5318 -40.8761
LeftArm  0.202838 -33.6431 -47.9092
LeftForeArm  17.8587 -46.8708 -10.68
LeftHand  -0.25398 0.0180481 5.50724
RightShoulder  5.12961 10.7056 30.132
RightArm  -27.4766 19.3156 26.3619
RightForeArm  -12.3122 43.5593 11.4207
RightHand  0.259069 -1.54737 8.25543
LeftUpLeg  -45.8866 50.84 -19.194
LeftLeg  23.085 -15.3627 -6.78334
LeftFoot  6.02828 1.73554 -11.3754
LeftToes  1.06248e-005 4.65855e-005 -8.18498e-006
389
root  60.2314 39.5336 16.336 -173.745 -19.6784 -178.537
RightUpLeg  -14.4191 -24.413 -9.51847
RightLeg  12.9408 -37.9538 2.72984
RightFoot  5.54355 0.304065 -1.78843
RightToes  0.000482159 0.542163 -0.142577
Spine  48.6168 -5.46642 8.02423
Spine1  6.5379 -2.51411 0.682692
HEad  -38.701 5.44755 -13.8567
LeftShoulder1  10.9525 -19.588 -41.0704
LeftArm  3.25388 -32.562 -48.5217
LeftForeArm  17.5163 -46.3756 -10.5098
LeftHand  -0.25398 0.0180481 5.50724
RightShoulder  5.44632 11.3041 30.8248
RightArm  -25.9174 15.335 25.8914
RightForeArm  -15.3575 44.8991 12.1341
RightHand  0.137286 -2.84069 7.38356
LeftUpLeg  -42.3512 51.1096 -17.7448
LeftLeg  20.0986 -2.59003 -0.693581
LeftFoot  0.152686 0.172475 -1.83422
LeftToes  1.06248e-005 4.65855e-005 -8.18498e-006
390
root  59.4151 39.5514 16.2061 -174.511 -21.554 -177.713
RightUpLeg  -11.0994 -19.647 -11.4909
RightLeg  9.67805 -43.8735 4.43178
RightFoot  6.7114 0.0592079 -0.0820124
RightToes  0.000482159 0.542163 -0.142577
Spine  45.2022 -5.22263 7.75162
Spine1  6.95764 -2.52794 0.573716
HEad  -37.6289 8.71453 -15.8413
LeftShoulder1  10.7692 -19.2142 -41.0518
LeftArm  6.28216 -31.6468 -49.682
LeftForeArm  16.5908 -45.1952 -10.1207
LeftHand  -0.25398 0.0180481 5.50724
RightShoulder  5.5414 11.4187 31.1818
RightArm  -24.1089 11.426 25.123
RightForeArm  -18.9357 46.045 12.8216
RightHand  0.0519149 -3.80349 6.18239
LeftUpLeg  -38.2409 50.851 -15.6287
LeftLeg  17.1869 12.0488 3.69995
LeftFoot  -3.89445 -0.251261 3.95162
LeftToes  1.06248e-005 4.65855e-005 -8.18498e-006
391
root  58.4821 39.518 16.0524 -174.284 -23.0656 -177.501
RightUpLeg  -9.33904 -18.4704 -12.9883
RightLeg  7.46936 -45.8893 5.50536
RightFoot  7.99357 -0.187773 1.41731
RightToes  0.000482159 0.542163 -0.142577
Spine  41.006 -4.28117 6.24108
Spine1  7.27903 -2.59838 1.3859
HEad  -36.2356 12.359 -17.8099
LeftShoulder1  10.5658 -18.9104 -40.8042
LeftArm  8.85647 -30.5837 -51.3006
LeftForeArm  15.6781 -43.9234 -9.71547
LeftHand  -0.25398 0.0180481 5.50724
RightShoulder  5.53536 11.3428 31.3318
RightArm  -22.1857 7.98652 24.3535
RightForeArm  -21.5106 46.6847 13.2459
RightHand  -0.00154224 -4.6496 5.99606
LeftUpLeg  -31.6876 46.0597 -9.91218
LeftLeg  15.8789 25.2392 3.88534
LeftFoot  -5.44724 -0.255849 5.54014
LeftToes  1.06248e-005 4.65855e-005 -8.18498e-006
392
root  57.4728 39.446 15.8907 -173.847 -25.5165 -178.042
RightUpLeg  -7.91288 -19.3567 -15.1474
RightLeg  8.01626 -47.0882 4.51918
RightFoot  8.55536 -0.507939 3.24889
RightToes  0.000482159 0.542163 -0.142577
Spine  37.1171 -3.71454 3.99914
Spine1  7.24484 -3.41377 2.84685
HEad  -34.8821 16.3283 -19.0884
LeftShoulder1  10.1036 -18.3595 -39.9344
LeftArm  11.6182 -29.9861 -53.718
LeftForeArm  14.9016 -42.2491 -9.18533
LeftHand  -0.25398 0.0180481 5.50724
RightShoulder  5.67097 11.5895 31.6204
RightArm  -21.0582 4.56606 23.4841
RightForeArm  -23.425 47.2754 13.6179
RightHand  -0.0641431 -5.69714 6.34504
LeftUpLeg  -29.9941 43.3833 -10.2715
LeftLeg  16.0463 26.5634 3.87255
LeftFoot  -5.58502 -0.267613 5.97345
LeftToes  1.06248e-005 4.65855e-005 -8.18498e-006
393
root  56.4312 39.3551 15.7463 -174.33 -29.3348 -178.663
RightUpLeg  -5.93257 -20.5698 -17.4467
RightLeg  10.9984 -47.0663 1.35
RightFoot  6.71844 -0.648578 4.37029
RightToes  0.000482159 0.542163 -0.142577
Spine  34.5307 -3.76312 2.61982
Spine1  6.90322 -4.35166 4.06461
HEad  -33.2054 19.0903 -19.0555
LeftShoulder1  9.68162 -18.0198 -38.7705
LeftArm  16.1847 -30.6719 -56.9754
LeftForeArm  13.4326 -39.5067 -8.39159
LeftHand  -0.25398 0.0180481 5.50724
RightShoulder  5.84412 11.8156 32.201
RightArm  -21.1986 0.0746245 22.2395
RightForeArm  -26.2143 48.8598 14.5308
RightHand  -0.127273 -6.88947 5.53747
LeftUpLeg  -30.4909 43.5351 -14.0273
LeftLeg  16.9711 20.6487 5.23128
LeftFoot  -6.01333 -0.307792 7.43306
LeftToes  1.06248e-005 4.65855e-005 -8.18498e-006
394
root  55.3821 39.2818 15.6517 -175.941 -33.202 -178.721
RightUpLeg  -4.19177 -21.4604 -18.5332
RightLeg  14.1589 -40.9706 -2.234
RightFoot  2.11096 -0.375557 3.20181
RightToes  0.000482159 0.542163 -0.142577
Spine  33.1126 -3.75908 2.57757
Spine1  6.73467 -4.43259 4.32394
HEad  -31.0935 20.0878 -18.5296
LeftShoulder1  9.61937 -18.1599 -38.2112
LeftArm  22.9319 -32.546 -60.4
LeftForeArm  11.0431 -36.1767 -7.54492
LeftHand  -0.25398 0.0180481 5.50724
RightShoulder  5.79831 11.4851 32.7373
RightArm  -21.977 -5.11365 21.0696
RightForeArm  -30.0362 51.3959 16.0689
RightHand  -0.139636 -8.02576 3.38485
LeftUpLeg  -28.0574 41.9747 -14.4058
LeftLeg  18.0228 18.3552 6.46146
LeftFoot  -7.82189 -0.224532 8.80289
LeftToes  1.06248e-005 4.65855e-005 -8.18498e-006
395
root  54.3534 39.2461 15.6067 -177.662 -36.0682 -178.599
RightUpLeg  -4.16119 -22.1307 -17.8278
RightLeg  16.206 -26.5175 -4.33317
RightFoot  -3.36234 -0.0549432 0.462721
RightToes  0.000482159 0.542163 -0.142577
Spine  31.9645 -3.47383 2.5093
Spine1  7.1074 -4.01536 4.008
HEad  -29.1247 20.5411 -18.5529
LeftShoulder1  9.78759 -18.2966 -38.6838
LeftArm  29.7812 -34.6611 -62.9455
LeftForeArm  8.8381 -33.5077 -6.94135
LeftHand  -0.25398 0.0180481 5.50724
RightShoulder  5.55764 10.8402 32.7999
RightArm  -22.4828 -9.16337 20.8254
RightForeArm  -33.6097 53.628 17.5737
RightHand  -0.107702 -9.08789 1.25782
LeftUpLeg  -24.0396 40.4139 -13.0296
LeftLeg  18.4279 18.0537 6.4117
LeftFoot  -10.0234 -0.0428573 8.81571
LeftToes  1.06248e-005 4.65855e-005 -8.18498e-006
396
root  53.3708 39.205 15.5662 -178.638 -38.6129 -178.992
RightUpLeg  -5.96481 -18.5018 -16.431
RightLeg  19.5067 -11.4722 -4.56562
RightFoot  -7.22477 -0.00238149 -1.11847
RightToes  0.000482159 0.542163 -0.142577
Spine  30.6611 -3.40113 1.38796
Spine1  7.78808 -4.21727 3.85912
HEad  -27.7662 21.709 -18.9557
LeftShoulder1  9.82841 -18.1183 -39.2193
LeftArm  34.1787 -36.3249 -64.4119
LeftForeArm  7.76644 -31.6343 -6.51699
LeftHand  -0.25398 0.0180481 5.50724
RightShoulder  5.40939 10.4618 32.7908
RightArm  -22.3568 -11.1414 21.3768
RightForeArm  -36.3193 54.8056 18.4743
RightHand  -0.0606876 -10.0171 -0.282416
LeftUpLeg  -20.138 38.6007 -11.8808
LeftLeg  18.4688 17.6833 5.36498
LeftFoot  -11.5602 0.0855135 8.08989
LeftToes  1.06248e-005 4.65855e-005 -8.18498e-006
397
root  52.4311 39.1716 15.5032 -179.04 -41.9548 -179.827
RightUpLeg  -8.39373 -9.39004 -15.6305
RightLeg  24.6278 -4.60179 -2.58418
RightFoot  -8.45507 -0.0449907 -0.505545
RightToes  0.000482159 0.542163 -0.142577
Spine  29.5336 -3.88829 -0.483642
Spine1  8.18392 -5.40009 4.28899
HEad  -26.6439 23.452 -19.0624
LeftShoulder1  9.69962 -17.8493 -39.1931
LeftArm  36.0072 -37.4699 -65.3171
LeftForeArm  7.21964 -29.687 -6.0638
LeftHand  -0.25398 0.0180481 5.50724
RightShoulder  5.48767 10.5329 33.1497
RightArm  -21.6578 -11.9827 21.9457
RightForeArm  -38.4251 55.3639 18.9511
RightHand  0.0104994 -10.3463 -1.93099
LeftUpLeg  -16.0042 33.6783 -10.5776
LeftLeg  18.1321 19.613 3.93249
LeftFoot  -12.5054 0.154076 7.70894
LeftToes  1.06248e-005 4.65855e-005 -8.18498e-006
398
root  51.4964 39.1903 15.4312 -179.521 -45.9986 179.666
RightUpLeg  -10.9968 -3.71029 -14.1779
RightLeg  29.0046 -2.17258 -1.5766
RightFoot  -8.47226 -0.0811279 0.951431
RightToes  0.000482159 0.542163 -0.142577
Spine  28.8094 -4.66726 -2.17574
Spine1  8.07395 -6.9763 5.33341
HEad  -25.1016 25.0408 -18.8257
LeftShoulder1  9.65522 -17.7505 -39.1965
LeftArm  37.283 -38.3816 -66.0425
LeftForeArm  5.91432 -27.04 -5.46681
LeftHand  -0.25398 0.0180481 5.50724
RightShoulder  5.63255 10.7269 33.6333
RightArm  -20.625 -12.7619 22.2689
RightForeArm  -40.2442 55.9554 19.4469
RightHand  0.0960609 -9.86689 -4.17892
LeftUpLeg  -11.5833 25.0918 -8.96591
LeftLeg  16.8331 24.9371 2.15267
LeftFoot  -13.349 0.213224 7.5779
LeftToes  1.06248e-005 4.65855e-005 -8.18498e-006
